<?xml version="1.0" standalone="no"?>
<!DOCTYPE svg PUBLIC "-//W3C//DTD SVG 20010904//EN"
 "http://www.w3.org/TR/2001/REC-SVG-20010904/DTD/svg10.dtd">
<svg version="1.0" xmlns="http://www.w3.org/2000/svg"
 width="280.000000pt" height="280.000000pt" viewBox="0 0 280.000000 280.000000"
 preserveAspectRatio="xMidYMid meet">
<metadata>
Created by potrace 1.11, written by Peter Selinger 2001-2013
</metadata>
<g transform="translate(0.000000,280.000000) scale(0.100000,-0.100000)"
fill="#000000" stroke="none">
<path d="M1450 2388 c0 -4 -1 -11 -2 -15 -2 -4 32 -8 74 -8 43 0 78 3 78 7 0
4 11 3 24 -2 16 -6 27 -5 35 3 10 9 12 9 9 -2 -2 -10 7 -15 27 -16 17 -1 48
-7 70 -15 22 -8 42 -14 45 -15 3 0 16 -7 28 -14 13 -7 26 -10 29 -8 2 3 13 -2
23 -11 22 -18 53 -25 44 -10 -4 7 -2 8 4 4 6 -4 9 -13 5 -21 -5 -14 13 -21 40
-16 5 1 6 -3 2 -9 -4 -6 13 -19 37 -30 24 -11 37 -20 30 -20 -7 0 -10 -4 -7
-10 7 -12 45 -14 45 -2 0 4 -10 14 -21 22 -12 8 -33 25 -47 38 -14 12 -28 22
-33 22 -4 0 -14 7 -22 15 -18 18 -144 76 -169 78 -10 1 -18 5 -18 10 0 4 -4 6
-9 2 -5 -3 -12 -1 -15 3 -3 5 -18 8 -33 7 -15 -1 -31 3 -34 8 -8 12 -239 16
-239 5z"/>
<path d="M1407 2377 c3 -4 -1 -8 -8 -6 -28 3 -40 -1 -33 -13 5 -10 4 -10 -5
-2 -13 12 -51 8 -51 -5 0 -4 -10 -8 -22 -8 -13 -1 -28 -10 -35 -19 -7 -10 -13
-14 -13 -10 0 8 -33 -11 -73 -42 -45 -36 -97 -98 -92 -110 3 -7 1 -11 -4 -7
-10 6 -41 -49 -41 -72 0 -7 -4 -13 -9 -13 -6 0 -8 -9 -6 -20 3 -18 1 -19 -18
-8 -12 6 -24 11 -27 11 -3 0 -16 4 -30 9 -29 11 -153 45 -190 52 -14 3 -40 9
-57 15 -43 13 -42 6 1 -14 42 -20 61 -63 60 -130 -4 -129 -4 -182 -3 -200 3
-42 46 -155 59 -155 4 0 10 -9 13 -20 4 -17 1 -19 -19 -14 -14 4 -31 1 -41 -7
-9 -8 -14 -9 -10 -3 5 9 -13 11 -65 8 -68 -4 -94 -16 -81 -38 3 -5 1 -6 -5 -2
-6 4 -8 14 -5 23 4 11 3 14 -5 9 -14 -8 -49 -18 -74 -19 -9 -1 -14 -5 -11 -10
3 -5 -1 -7 -8 -6 -8 1 -23 -1 -34 -6 -78 -31 -106 -46 -100 -55 3 -5 0 -7 -9
-4 -18 7 -66 -24 -66 -43 0 -8 -5 -11 -10 -8 -13 8 -42 -20 -32 -30 4 -5 1 -5
-7 0 -17 10 -35 -16 -18 -28 8 -6 7 -7 -4 -4 -10 3 -29 -8 -50 -29 -18 -19
-29 -34 -23 -34 5 0 4 -4 -1 -8 -31 -22 -56 -96 -26 -78 4 3 8 -4 8 -15 2 -18
0 -18 -17 3 -21 26 -20 27 -44 -54 -8 -27 -10 -48 -5 -48 5 0 9 -5 9 -11 0 -5
-4 -7 -10 -4 -10 6 -12 -8 -14 -102 -1 -41 2 -53 14 -53 12 0 12 -2 2 -9 -11
-7 -11 -16 -1 -52 7 -24 18 -47 24 -51 5 -4 6 -8 2 -8 -8 0 17 -49 43 -84 34
-44 81 -87 90 -81 6 3 10 0 10 -7 0 -15 71 -58 95 -58 9 0 13 -4 10 -10 -3 -6
3 -10 15 -10 14 0 19 -4 14 -12 -5 -8 0 -7 11 2 10 8 16 10 12 4 -4 -7 2 -14
16 -18 33 -9 36 -8 30 12 -2 10 -24 25 -53 35 -27 10 -55 24 -63 32 -8 8 -17
11 -21 8 -3 -4 -6 -2 -6 4 0 10 -49 38 -62 35 -4 -1 -5 5 -2 12 3 9 -3 17 -15
21 -12 3 -21 13 -21 21 0 16 -12 18 -26 4 -7 -7 -11 -6 -11 4 0 8 4 13 9 10 4
-3 8 2 8 10 0 9 -4 16 -9 16 -9 0 -37 60 -33 73 1 4 -2 7 -7 7 -5 0 -8 11 -6
25 1 14 -2 25 -7 25 -5 0 -6 5 -2 12 11 17 10 78 -1 78 -5 0 -4 4 4 9 7 5 14
25 16 44 2 42 24 97 37 97 6 0 5 7 -2 15 -10 13 -9 15 11 16 13 0 19 3 12 5
-17 7 -4 34 16 35 9 0 11 3 4 5 -16 7 15 44 37 44 12 0 13 2 1 9 -11 7 -10 11
5 19 11 5 26 7 34 5 13 -4 13 -3 0 6 -13 9 -12 12 5 25 11 8 23 12 28 9 4 -2
6 1 5 9 -2 7 3 12 11 10 12 -3 12 -1 0 14 -13 16 -12 16 11 4 24 -13 24 -12
10 6 -8 10 -10 16 -5 11 4 -4 19 0 32 8 13 9 29 13 35 9 7 -4 8 -3 4 5 -8 12
33 32 48 23 5 -3 6 0 2 6 -4 7 -1 12 8 12 9 0 16 5 16 11 0 7 10 9 25 7 13 -3
22 -2 20 3 -3 4 -1 10 5 14 5 3 10 0 10 -7 0 -9 3 -9 8 -2 4 6 21 15 37 19 17
5 33 9 38 10 4 2 16 3 28 4 13 1 18 5 13 14 -6 9 -5 9 8 0 8 -7 18 -10 21 -6
4 3 7 1 7 -5 0 -7 -6 -12 -14 -12 -8 0 -17 -7 -20 -16 -4 -10 -14 -14 -26 -11
-11 3 -17 1 -14 -4 3 -6 -16 -32 -43 -58 -26 -26 -66 -70 -88 -96 -22 -27 -50
-59 -62 -71 -32 -32 -29 -40 4 -14 38 30 128 22 154 -13 3 -5 10 -9 15 -10 5
-1 8 -5 7 -9 -2 -5 0 -7 5 -7 17 3 30 -2 50 -21 12 -12 22 -18 22 -14 0 3 6 2
13 -4 33 -27 237 -62 237 -40 0 9 29 6 47 -5 9 -5 11 -3 8 6 -4 9 6 17 27 23
l33 11 1 -51 c1 -28 4 -67 7 -86 13 -72 12 -104 -3 -95 -5 3 -18 -2 -28 -12
-10 -10 -25 -19 -33 -21 -8 -2 -16 -8 -17 -13 -2 -5 -8 -7 -12 -4 -16 10 -20
-13 -5 -25 10 -9 15 -9 15 -1 0 6 9 11 21 11 11 0 17 4 14 10 -3 6 0 10 8 10
8 0 20 7 27 15 7 9 19 15 27 13 17 -4 65 -117 58 -136 -3 -7 -1 -11 4 -7 5 3
21 -16 35 -42 23 -41 25 -48 11 -56 -8 -4 -13 -12 -10 -17 3 -5 0 -12 -6 -16
-8 -4 -9 -3 -5 4 10 16 -5 15 -29 -1 -11 -8 -54 -27 -95 -42 -41 -16 -84 -36
-94 -44 -11 -9 -16 -10 -12 -3 9 16 -6 16 -23 0 -9 -8 -11 -8 -8 -2 5 9 -3 10
-31 3 -20 -5 -54 -9 -74 -9 -24 0 -38 -5 -38 -12 0 -8 -3 -9 -8 -3 -4 6 -44
10 -89 10 -46 0 -83 3 -83 7 0 3 -8 5 -17 3 -10 -1 -25 1 -34 6 -9 5 -31 10
-48 11 -17 1 -31 6 -31 10 0 4 -5 8 -11 8 -6 0 -9 -6 -6 -14 3 -7 0 -19 -6
-25 -9 -9 -8 -11 6 -6 24 10 69 -3 61 -17 -4 -7 -3 -8 5 -4 6 4 9 12 6 17 -4
5 -2 9 4 9 5 0 11 -5 13 -10 2 -6 23 -13 46 -15 30 -3 41 -1 36 7 -4 6 3 4 16
-5 19 -13 27 -14 39 -4 12 10 13 9 6 -3 -8 -13 -7 -13 8 -1 9 7 17 10 17 5 0
-5 22 -9 50 -9 27 0 50 2 50 5 0 3 21 5 48 5 26 0 61 4 77 8 17 5 39 10 50 11
11 1 19 7 18 12 -1 6 4 11 12 11 8 0 11 -5 8 -10 -4 -6 1 -8 11 -4 10 4 22 7
27 7 4 0 6 8 3 18 -5 16 -5 16 6 -1 8 -13 16 -15 29 -7 10 5 22 6 26 2 5 -4 6
0 2 9 -4 13 -1 16 14 12 10 -3 26 0 34 7 8 7 15 9 15 4 0 -5 4 -3 9 5 11 18
61 26 61 11 0 -6 5 -8 12 -4 7 5 8 3 4 -5 -5 -7 -1 -20 7 -29 8 -9 17 -24 21
-32 3 -8 3 -1 -1 15 -16 74 1 120 34 94 16 -12 17 -12 6 1 -15 19 -4 38 20 34
9 -1 15 1 13 4 -5 10 20 32 28 25 3 -4 6 1 6 10 0 9 4 17 8 17 15 0 53 41 47
50 -3 6 1 7 9 4 9 -3 23 6 37 26 13 17 28 29 34 26 7 -2 12 2 13 10 1 8 3 21
4 29 1 8 6 15 11 15 13 0 62 53 59 64 -2 5 4 6 12 3 10 -4 13 -1 10 8 -3 8 0
21 8 29 30 34 38 46 38 56 0 5 5 10 11 10 5 0 8 4 5 9 -4 5 2 8 11 6 10 -1 17
-8 15 -15 -1 -6 2 -9 7 -5 6 3 7 13 4 23 -6 15 -5 16 12 2 11 -9 16 -10 11 -2
-5 8 1 12 18 13 34 2 39 3 54 12 6 5 12 6 12 2 0 -3 14 1 30 10 28 14 35 13
31 -8 -1 -5 3 -6 8 -2 6 3 7 13 4 23 -6 15 -5 16 12 2 11 -9 16 -10 11 -2 -10
16 16 16 34 0 12 -11 12 -10 2 4 -9 11 -10 18 -2 23 5 3 10 4 10 1 0 -3 33 14
74 38 41 24 77 42 80 38 3 -3 6 -1 6 5 0 6 16 18 36 28 42 20 40 30 -4 14 -21
-7 -36 -7 -50 0 -11 6 -22 8 -25 4 -4 -3 -9 2 -13 11 -3 9 -10 16 -16 16 -21
0 -72 75 -62 92 4 7 3 8 -4 4 -12 -7 -79 61 -75 75 2 5 -5 5 -14 2 -13 -5 -15
-2 -10 11 4 10 7 21 7 26 0 5 9 12 20 15 12 4 17 11 14 18 -5 9 -3 9 6 0 9 -8
19 -9 32 -2 10 5 18 7 18 5 0 -3 16 3 36 14 19 11 39 18 44 15 5 -3 11 -1 15
4 3 5 15 8 26 6 18 -4 19 -2 7 12 -10 13 -10 15 0 9 7 -4 20 -2 28 5 8 6 17 9
20 6 4 -3 12 -1 20 6 33 29 41 34 57 31 14 -2 16 1 7 11 -8 10 -7 13 7 11 10
0 17 4 16 9 -1 6 10 11 23 11 30 2 66 32 57 47 -3 6 -1 7 6 3 6 -4 18 -1 26 6
37 34 46 39 58 32 7 -5 7 -1 -2 10 -8 9 -10 16 -5 15 19 -3 34 1 34 12 0 5 -5
7 -12 3 -7 -4 -8 -3 -4 5 4 6 12 9 17 5 5 -3 17 0 25 7 12 10 12 14 2 20 -10
7 -9 9 3 9 21 0 61 39 53 52 -4 6 -3 8 4 4 11 -7 44 32 37 44 -2 3 5 13 15 20
15 11 17 17 8 27 -8 11 -7 12 7 6 15 -5 17 -3 12 11 -4 9 -3 15 1 12 10 -6 34
84 38 141 1 24 -2 43 -7 43 -4 0 -5 7 -2 17 4 11 3 14 -5 9 -7 -4 -12 -1 -12
7 0 24 -24 39 -40 24 -9 -8 -11 -9 -6 0 3 6 2 14 -4 18 -5 3 -10 0 -10 -7 0
-8 -3 -9 -8 -2 -6 9 -42 11 -109 6 -27 -2 -56 -30 -47 -44 4 -7 2 -8 -5 -4 -6
4 -9 12 -6 17 25 40 -171 -88 -243 -158 -13 -13 -25 -23 -27 -23 -2 0 -17 12
-32 27 -15 14 -21 23 -13 18 11 -5 10 -2 -2 11 -13 13 -21 15 -29 7 -7 -7 -3
-16 15 -31 14 -11 26 -25 26 -31 0 -6 5 -11 10 -11 12 0 11 -2 -55 -74 -24
-27 -42 -53 -39 -58 3 -5 2 -7 -3 -6 -4 2 -9 -1 -11 -7 -2 -5 -10 -14 -18 -18
-21 -12 -94 -124 -91 -139 2 -7 2 -10 0 -6 -3 4 -11 1 -19 -7 -9 -8 -12 -20
-8 -26 4 -8 3 -9 -5 -5 -7 5 -15 -4 -22 -23 -6 -17 -15 -31 -20 -31 -5 0 -9
-6 -9 -13 0 -7 -13 -34 -30 -60 -28 -45 -32 -47 -75 -47 -29 0 -44 4 -40 10 4
6 9 8 13 6 4 -2 8 6 8 17 1 12 9 42 19 67 9 25 17 53 18 62 1 10 4 18 8 18 3
0 6 8 6 18 0 51 4 73 12 67 5 -3 13 -1 16 5 4 6 3 10 -2 9 -19 -3 -22 2 -13
25 6 16 5 28 -3 36 -10 10 -8 12 7 6 16 -5 17 -4 7 8 -7 8 -12 23 -11 33 1 10
1 20 0 23 -2 6 -8 75 -14 163 -4 63 -16 91 -16 39 0 -44 0 -43 -43 -79 -21
-18 -55 -35 -75 -39 -83 -14 -155 -38 -207 -71 -30 -19 -55 -38 -55 -41 0 -4
-10 -18 -23 -32 -12 -14 -33 -43 -47 -64 -20 -34 -24 -37 -31 -20 -3 11 -33
43 -65 72 -78 70 -80 71 -108 81 -17 7 -25 19 -28 45 -2 19 0 32 5 29 5 -3 7
11 4 31 -3 20 -1 33 4 30 5 -3 7 -10 4 -15 -4 -5 -4 -9 -1 -9 3 0 18 25 32 55
15 30 31 55 37 55 5 0 7 7 4 15 -4 8 -1 17 5 21 7 4 8 3 4 -4 -13 -21 8 -12
44 18 19 17 40 30 47 30 7 0 13 5 13 10 0 6 9 10 21 10 13 0 18 4 13 12 -4 6
-3 8 4 5 5 -4 31 2 56 13 26 11 48 20 51 20 3 0 9 0 13 0 5 0 9 6 9 14 0 8 -8
14 -18 13 -10 -1 -15 -5 -12 -10z m-187 -92 c-7 -8 -17 -15 -23 -15 -6 0 -2 7
9 15 25 19 30 19 14 0z m1402 -6 c10 -5 18 -6 18 -2 0 4 7 -4 14 -19 16 -30
17 -160 2 -150 -5 3 -7 -5 -4 -16 4 -12 3 -20 -1 -18 -9 6 -55 -82 -56 -104 0
-8 -5 -15 -10 -16 -6 0 -39 -29 -75 -65 -78 -76 -127 -119 -137 -119 -5 0 -19
-10 -33 -21 -17 -15 -19 -19 -7 -15 11 4 16 2 11 -5 -3 -6 -15 -9 -25 -6 -11
3 -35 -7 -59 -24 -22 -16 -43 -29 -47 -29 -20 0 -43 -12 -38 -20 3 -4 -4 -6
-15 -3 -11 3 -20 1 -20 -4 0 -5 -6 -10 -12 -11 -7 0 -22 -3 -33 -6 -11 -2 -25
-5 -32 -5 -6 -1 -19 -8 -27 -17 -9 -9 -16 -11 -16 -4 0 6 -5 8 -12 4 -20 -13
-59 -13 -55 -1 3 7 10 11 17 9 11 -2 11 0 1 12 -7 9 -8 17 -2 20 5 3 12 0 15
-6 3 -7 3 -3 1 9 -3 12 -2 24 4 27 11 7 9 24 -4 46 -6 10 -2 9 12 -3 20 -17
20 -17 20 0 -1 25 14 73 22 73 4 0 12 -4 19 -10 9 -7 9 -7 2 2 -14 16 -13 31
2 22 6 -4 8 -3 5 3 -3 5 1 22 8 37 8 16 12 33 8 39 -4 6 -1 7 7 2 10 -6 12 -3
7 11 -6 15 -3 14 13 -5 11 -13 20 -19 20 -14 0 5 -5 14 -11 20 -9 9 -6 19 10
39 17 21 19 29 9 37 -9 6 -8 7 5 3 12 -4 21 2 29 18 6 15 16 22 25 19 7 -3 11
-8 9 -11 -3 -3 4 -15 17 -27 12 -11 23 -27 25 -35 4 -18 43 -72 48 -67 3 2 -6
26 -20 53 -13 27 -22 53 -19 58 3 5 1 6 -5 2 -8 -4 -16 3 -22 19 -5 14 -14 24
-18 21 -4 -2 -8 4 -8 14 0 10 3 17 6 15 3 -1 11 3 18 11 7 8 9 14 5 14 -4 0 3
7 15 16 12 8 19 20 16 26 -4 7 -2 8 4 4 7 -4 17 3 23 18 7 14 15 23 19 21 13
-8 33 24 26 42 -5 15 -4 15 9 -1 14 -18 20 -15 16 7 -1 5 2 6 7 3 16 -9 52 23
46 42 -5 13 -4 14 4 3 8 -11 16 -11 46 0 20 7 36 17 36 22 0 4 3 6 8 4 4 -3
16 -1 27 3 23 8 59 4 87 -11z m-375 -166 c0 -9 -4 -10 -14 -2 -7 6 -13 12 -13
14 0 1 6 2 13 2 8 0 14 -6 14 -14z m-77 -37 c0 -2 -8 -10 -17 -17 -16 -13 -17
-12 -4 4 13 16 21 21 21 13z m-1123 -31 c0 -8 -4 -12 -9 -9 -5 3 -6 10 -3 15
9 13 12 11 12 -6z m1118 -33 c-3 -3 -11 0 -18 7 -9 10 -8 11 6 5 10 -3 15 -9
12 -12z m-45 -7 c-14 -17 -30 -20 -30 -4 0 5 4 8 9 4 5 -3 12 -1 16 5 3 5 9
10 12 10 3 0 0 -7 -7 -15z m-26 -43 c3 -5 -1 -9 -9 -9 -8 0 -15 4 -15 9 0 4 4
8 9 8 6 0 12 -4 15 -8z m-24 -41 c0 -6 -4 -12 -8 -15 -5 -3 -9 1 -9 9 0 8 4
15 9 15 4 0 8 -4 8 -9z m0 -41 c0 -5 -5 -10 -11 -10 -5 0 -7 5 -4 10 3 6 8 10
11 10 2 0 4 -4 4 -10z m-85 -39 c-9 -8 -36 -10 -30 -2 2 4 11 8 20 8 8 0 13
-3 10 -6z m-1195 -261 c0 -5 -5 -10 -11 -10 -5 0 -7 5 -4 10 3 6 8 10 11 10 2
0 4 -4 4 -10z m-127 -15 c-3 -9 -8 -14 -10 -11 -3 3 -2 9 2 15 9 16 15 13 8
-4z m-139 -51 c3 -8 2 -12 -4 -9 -6 3 -10 10 -10 16 0 14 7 11 14 -7z m-114
-19 c-5 -7 -9 -14 -7 -16 1 -2 0 -3 -2 -2 -2 2 -11 -3 -20 -9 -12 -10 -12 -7
2 8 9 11 15 23 12 26 -3 2 2 5 10 5 10 0 12 -4 5 -12z m-20 -69 c0 -2 -7 -7
-16 -10 -8 -3 -12 -2 -9 4 6 10 25 14 25 6z m-103 -21 c0 -8 -3 -13 -5 -10 -3
3 -12 -1 -21 -7 -10 -8 -9 -4 3 10 23 26 23 26 23 7z m-96 -82 c13 -16 12 -17
-3 -4 -10 7 -18 15 -18 17 0 8 8 3 21 -13z m-66 -155 c5 4 5 1 1 -6 -6 -10
-11 -10 -22 -1 -8 6 -14 14 -14 16 0 3 6 0 13 -6 8 -6 18 -7 22 -3z m-44 -135
c12 -16 12 -17 -2 -6 -9 7 -20 9 -24 5 -5 -4 -5 -1 -1 6 9 16 11 15 27 -5z
m1545 2 c-1 -8 -5 -17 -8 -21 -5 -4 -4 16 1 34 3 9 9 -1 7 -13z m-1539 -120
c0 -8 -4 -12 -9 -9 -5 3 -6 10 -3 15 9 13 12 11 12 -6z"/>
<path d="M2315 2131 c-3 -5 -2 -12 3 -15 5 -3 9 1 9 9 0 17 -3 19 -12 6z"/>
<path d="M1175 2171 c-3 -5 -2 -12 3 -15 5 -3 9 1 9 9 0 17 -3 19 -12 6z"/>
<path d="M1766 1722 c-3 -5 1 -9 9 -9 8 0 12 4 9 9 -3 4 -7 8 -9 8 -2 0 -6 -4
-9 -8z"/>
<path d="M1756 1687 c3 -10 9 -15 12 -12 3 3 0 11 -7 18 -10 9 -11 8 -5 -6z"/>
<path d="M1755 1631 c-3 -5 -2 -12 3 -15 5 -3 9 1 9 9 0 17 -3 19 -12 6z"/>
<path d="M2080 1180 c-9 -6 -10 -10 -3 -10 6 0 15 5 18 10 8 12 4 12 -15 0z"/>
<path d="M1850 1079 c0 -5 5 -7 10 -4 6 3 10 8 10 11 0 2 -4 4 -10 4 -5 0 -10
-5 -10 -11z"/>
<path d="M372 879 c2 -6 8 -10 13 -10 6 0 14 -7 18 -15 5 -8 12 -12 18 -9 5 4
9 2 9 -3 0 -5 15 -13 33 -17 17 -4 39 -9 47 -12 8 -2 24 -5 35 -6 11 -1 22 -5
25 -8 3 -3 27 -9 53 -12 37 -5 46 -4 41 6 -6 9 -4 9 7 1 21 -15 74 -17 100 -4
16 9 20 9 14 1 -4 -8 1 -10 17 -7 12 3 34 8 48 10 14 2 39 10 55 17 33 14 40
16 56 18 5 0 7 6 4 12 -9 14 -66 1 -83 -20 -7 -9 -11 -10 -7 -3 4 7 0 12 -10
12 -9 0 -14 -3 -12 -7 4 -7 -31 -10 -171 -16 -23 -1 -42 2 -42 7 0 5 -6 3 -14
-3 -12 -10 -20 -9 -40 4 -14 10 -26 15 -26 12 0 -3 -21 0 -47 8 -25 8 -50 12
-54 9 -4 -2 -9 0 -11 5 -1 5 -10 11 -18 13 -8 2 -21 9 -28 16 -16 15 -35 16
-30 1z"/>
<path d="M1433 725 c0 -8 4 -12 9 -9 5 3 6 10 3 15 -9 13 -12 11 -12 -6z"/>
<path d="M1230 576 c0 -2 8 -10 18 -17 15 -13 16 -12 3 4 -13 16 -21 21 -21
13z"/>
</g>
</svg>
